<?xml version="1.0" encoding="UTF-8"?>
<svg version="1.1" viewBox="0 0 364 395" xmlns="http://www.w3.org/2000/svg">
<path d="m174.91 219.73-36.858 116.81 57.953 6.6261 45.67 1.2209-41.999-127.98 96.547-15.963-15.954-128.23-220.52 55.868 10.952 66.899m74.303-180.51c-7.425 0.752-16.875 2.053-21 2.891-4.125 0.837-9.75 1.796-12.5 2.131-49.558 6.029-65.712 22.524-68.553 70.002-1.171 19.569-1.15 39.257 0.043 39.994 1.122 0.693-2.839 9.174-6.664 14.271-9.817 13.08-10.688 31.227-2.424 50.506 4.646 10.839 18.011 19.322 18.134 11.51 0.022-1.361 0.823-0.092 1.989 3.149 6.038 16.79 18.864 22.585 18.968 8.57 0.04-5.488 0.083-5.459 4.428 3 6.418 12.492 6.429 12.5 16.642 12.5 4.851 0 9.098-0.451 9.439-1.003 0.414-0.67 1.241-0.67 2.493 0 2.564 1.373 17.599 1.125 22.505-0.37 3.977-1.212 4-1.247 3.968-6.216-0.031-4.996-0.031-4.996 5-4.277 2.768 0.396 11.669 0.753 19.782 0.793 14.75 0.073 14.75 0.073 14.75 3.951 0 5.826-1.541 6.558-13.868 6.592-18.08 0.051-20.054 6.36-20.85 66.649l-0.563 42.62-8.855 0.505c-9.354 0.533-11.864 1.628-11.864 5.178 0 4.467 0.783 4.578 32.45 4.582 37.931 4e-3 64.245 1.135 49.55 2.129-5.225 0.354-14.957 0.694-21.628 0.755-13.034 0.12-14.842 0.793-14.199 5.282 0.46 3.206 4.266 4.784 11.827 4.903 13.628 0.214 17.077 1.163 12.5 3.438-6.502 3.233-5.959 10.489 0.785 10.489 5.852 0 13.715 3.143 13.715 5.483 0 5.418 6.07 6.103 10.804 1.219 5.251-5.417 4.206-9.72-2.722-11.203-5.12-1.096-2.129-2.166 9.153-3.274 11.913-1.169 16.483-5.107 11.598-9.992-0.89-0.89-0.83-1.278 0.25-1.634 2.46-0.81 15.999-3.658 24.176-5.086 12.903-2.252 16.124-10.513 4.1-10.513-2.333 0-4.519-0.45-4.859-1s-1.491-1-2.559-1c-1.837 0-1.941-0.822-1.941-15.278 0-9.579-0.768-21.236-2.058-31.25-1.131-8.785-2.48-20.697-2.996-26.472-3.201-35.799-5.236-39.365-21.924-38.399-12.719 0.736-16.022-0.182-16.022-4.452 0-2.901 0-2.901 14.75-3.366 12.843-0.405 15.72-0.817 22.25-3.187 4.125-1.497 9.525-3.326 12-4.065 2.475-0.738 5.253-1.645 6.173-2.014 1.233-0.495 2.669 0.662 5.463 4.406 5.162 6.913 8.352 6.34 14.247-2.56 3.002-4.532 4.69-4.493 3.542 0.082-0.82 3.266 1.064 4.039 6.362 2.612 3.871-1.042 6.601-3.568 13.213-12.224 2.5-3.273 2.5-3.273 3 0.687 0.724 5.734 2.922 5.58 9.974-0.697 9.928-8.838 12.597-20.411 6.7-29.056-2.244-3.289-4.373-8.272-5.67-13.267-1.142-4.4-2.584-8.9-3.205-10s-1.228-4.7-1.349-8-1.164-9.375-2.318-13.5c-2.191-7.833-2.79-16.475-1.21-17.452 1.176-0.727 4.716-11.669 5.677-17.548 0.542-3.319 0.902-3.975 1.371-2.5 5.798 18.232 12.821 12.907 8.721-6.612-1.953-9.296-22.136-37.888-26.745-37.888-0.456 0-3.217-2.302-6.137-5.115-7.401-7.131-15.184-10.536-41.809-18.29-4.959-1.444-40.57-7.454-57.024-9.623-3.589-0.473-8.539-1.33-11-1.904-7.595-1.772-23.839-2.025-37.976-0.592m63.526 85.111c-0.961 5.452-2.049 11.711-2.417 13.908-0.656 3.912-0.774 4.01-5.64 4.671-29.083 3.95-37.665 3.801-38.553-0.666-0.566-2.848-2.916-0.1-2.916 3.41 0 2.827-4.014 3.893-17.25 4.581l-13.75 0.714v22.231c0 12.227 0.279 22.51 0.621 22.851 0.341 0.342 0.724 5.164 0.85 10.717s0.64 10.507 1.141 11.008c6.063 6.063 56.045 19.988 71.745 19.988 10.814 0 40.962-4.382 52.643-7.651 27.469-7.688 35.163-31.264 26.234-80.39-1.734-9.542-1.734-9.542-5.194-7.208-5.988 4.038-7.428 2.986-8.245-6.024-1.125-12.412-3.72-20.635-5.373-17.03-3.045 6.64-5.422 12.234-5.422 12.76 0 0.312-2.106 3.734-4.68 7.605-8.094 12.172-11.221 10.451-16.459-9.062-1.208-4.5-1.208-4.5-2.944 4.428-1.698 8.725-3.934 12.476-7.484 12.55-1.686 0.035-10.594-17.723-12.987-25.891l-2.173-7.414-1.747 9.914m-65.184 33.964c-1.224 3.19 1.266 3.484 27.225 3.216 25.177-0.259 25.933-0.325 25.933-2.267 0-2.78-52.098-3.71-53.158-0.949m99.004 1.989c-1.163 3.031 1.206 3.519 15.733 3.239 13.661-0.264 14.421-0.384 14.421-2.279 0-2.771-29.103-3.698-30.154-0.96m-70.281 7.338c-3.914 7.315 0.339 22.351 5.186 18.329 1.708-1.417 3.999-11.823 3.578-16.25-0.409-4.297-6.769-5.806-8.764-2.079m81.901 4.372c-4.429 7.181-0.843 21.027 4.153 16.031 1.102-1.102 3.881-11.577 3.881-14.63 0-5.32-5.071-6.204-8.034-1.401m-177.93 4.435c-3.631 4.616-2.654 27.374 1.219 28.408 3.456 0.923 3.502 0.731 4.066-17.343 0.472-15.142-0.491-17.159-5.285-11.065m134.3 40.893c-0.419 1.09 0.03 2.213 1.236 3.096 2.718 1.987 4.932 1.229 4.932-1.688 0-3.107-5.072-4.266-6.168-1.408m-33.332 29.34c0 3.805-0.215 7.518-0.478 8.25-1.426 3.972 17.174 8.572 21.965 5.433 4.353-2.852 3.39-17.594-1.149-17.598-1.739-2e-3 -6.689-0.678-11-1.503s-8.176-1.5-8.588-1.5-0.75 3.113-0.75 6.918m-6.308 30.332c-1.243 0.92-1.756 3.033-1.941 7.998-0.234 6.285-0.408 6.748-2.532 6.75-2.748 2e-3 -3.963 2.581-2.397 5.088 0.724 1.159 0.781 2.041 0.158 2.427-1.425 0.88-1.2 4.255 0.345 5.187 0.729 0.44 1.637 1.645 2.018 2.678 0.558 1.514 1.369 1.768 4.186 1.311 3.257-0.529 3.625-0.308 5.447 3.265 7.774 15.238 27.691 15.88 26.858 0.865-0.261-4.715 0.026-6.611 1.131-7.469 2.454-1.904-0.798-12.879-3.783-12.771-1.215 0.045-2.182-0.525-2.182-1.284 0-7.714-21.157-18.595-27.308-14.045m3.316 7.5c0.035 17.812 8.962 33.235 19.242 33.245 4.672 5e-3 4.75-0.048 4.75-3.174 0-3.93-2.06-10.048-3.745-11.121-0.69-0.44-1.255-2.152-1.255-3.805 0-7.97-8.963-18.895-15.503-18.895-3.376 0-3.497 0.13-3.489 3.75m35.416 4.588c-1.519 3.959 0.078 17.162 2.076 17.162 1.313 0 2.11-0.773 2.32-2.25 0.368-2.591 0.554-2.658 3.061-1.092 4.838 3.021 6.608-3.638 2.25-8.464-6.193-6.858-8.618-8.196-9.707-5.356m-28.71 2.281c-1.314 1.314-0.733 4.271 1.036 5.274 1.656 0.938 1.652 1.064-0.086 2.349-4.078 3.014-1.835 7.258 3.836 7.258 5.308 0 6.119-2.749 3.604-12.226-0.734-2.765-6.466-4.578-8.39-2.655" fill="#faddd9" fill-rule="evenodd"/>
<rect x="158.44" y="248.59" width="70.501" height="53.674" fill="#fff" stroke-width="1.1175"/>
<path d="m147 19.527c-7.425 0.769-15.975 1.875-19 2.459-3.025 0.583-9.775 1.687-15 2.452-17.664 2.586-21.482 3.39-29 6.102-10.455 3.772-14.606 6.025-17.769 9.647-1.502 1.72-4.15 4.704-5.885 6.63-6.601 7.332-11.143 23.7-12.399 44.683-1.034 17.271-1.043 32.248-0.018 28 0.398-1.65 1.312-4.096 2.032-5.436s1.585-5.84 1.924-10c0.544-6.692 0.846-7.564 2.615-7.564 3 0 3.309 10.249 0.545 18.112-1.125 3.2-2.045 6.334-2.045 6.965 0 1.621-7.245 16.61-12.047 24.923-8.589 14.87-9.541 20.788-5.648 35.112 2.82 10.375 3.904 12.778 7.504 16.638 3.455 3.704 4.191 3.474 4.191-1.307 0-16.291 6.146-18.623 8.663-3.287 2.416 14.722 12.204 32.074 12.323 21.844 0.147-12.693 5.758-16.79 9.587-7 2.346 6 2.346 6 2.207-7.228-0.139-13.227-0.139-13.227-3.462-16.448-11.909-11.543-9.417-40.824 3.474-40.824 3.087 0 3.213-0.161 3.34-4.25 0.675-21.812 1.347-27.25 3.368-27.25 2.634 0 3.068 8.418 1.443 28-2.544 30.664-3.897 27.142 10.702 27.85 7.07 0.343 15.443 0.91 18.605 1.261l5.75 0.637v-21.905c0-21.905 0-21.905-3.084-23.069-7.531-2.842-3.343-4.164 14.863-4.692 23.343-0.676 28.583-10.726 20.491-39.297-2.424-8.563-2.328-14.785 0.23-14.785 1.564 0 2.134 0.871 2.614 4 0.337 2.2 1.329 6.603 2.204 9.784 0.875 3.182 1.857 8.582 2.184 12 2.227 23.34 3.684 24.876 21.498 22.662 4.675-0.581 10.389-1.281 12.697-1.555 4.143-0.491 4.205-0.557 4.863-5.194 0.366-2.583 1.515-8.909 2.553-14.057s1.887-10.915 1.887-12.816c0-6.856 4.066-9.907 6.096-4.574 0.576 1.513 2.387 7.676 4.025 13.697 1.637 6.021 4.623 14.079 6.634 17.907l3.657 6.959 1.627-7.406c0.895-4.074 2.579-10.557 3.744-14.407 1.164-3.85 2.252-8.125 2.417-9.5 1.044-8.698 5.547-1.249 5.7 9.432 0.095 6.609 3.609 22.588 4.96 22.55 2.623-0.074 13.869-23.927 14.996-31.808 1.068-7.468 4.794-6.79 7.289 1.326 1.015 3.3 2.286 7.35 2.825 9 0.538 1.651 1.517 6.463 2.175 10.694 2.343 15.07 7.654 5.361 6.357-11.62-1.455-19.038-1.281-23.074 0.998-23.074 1.744 0 2.088 0.895 2.686 7 0.377 3.85 1.151 10.375 1.719 14.5s1.054 11.55 1.079 16.5c0.026 4.95 0.911 13.755 1.968 19.567 4.767 26.219 3.763 47.32-2.935 61.688-2.917 6.255-2.917 6.255 0.892 12 2.095 3.16 4.12 6.735 4.501 7.944 1.227 3.897 12.697-7.082 17.106-16.373 2.663-5.612 4.921-4.13 5.283 3.465 0.319 6.71 7.131 2.926 8.621-4.79 0.319-1.65 0.822-4.267 1.119-5.815 0.409-2.138-0.195-3.737-2.516-6.657-1.856-2.336-4.045-7.216-5.578-12.437-1.388-4.725-2.928-9.328-3.421-10.227s-1.41-5.399-2.037-10c-0.626-4.601-1.773-11.065-2.548-14.365-2.226-9.475-1.871-17.714 1.008-23.395 3.967-7.829 5.002-16.325 3.106-25.503-1.763-8.536-1.443-10.005 2.036-9.34 3.167 0.605 0.805-3.633-5.089-9.13-2.2-2.052-5.178-5.1-6.618-6.774-1.439-1.674-4.702-4.541-7.25-6.37-2.547-1.83-4.646-3.813-4.663-4.408-0.072-2.467-12.388-8.189-26.969-12.528-4.125-1.227-8.85-2.69-10.5-3.25s-15.375-2.977-30.5-5.372-31.325-5.044-36-5.887c-12.789-2.304-22.088-2.559-37-1.016m168.65 60.593c1.486 4.313 4.156 9.88 4.738 9.88 1.128 0-1.444-8.152-3.41-10.813-2.993-4.047-3.034-4.018-1.328 0.933m-230.65 103.74c0 4.459 5.259 6.471 25.124 9.613 14.748 2.332 18.61 0.668 14.111-6.08-2.289-3.433-39.235-6.76-39.235-3.533m190.16 17.464c-1.223 1.302-3.447 2.979-4.942 3.727-5.415 2.711-5.458 2.94-1.334 7.064 4.654 4.654 4.446 4.628 7.118 0.876 4.72-6.629 3.985-16.806-0.842-11.667m-143.78 5.862c0.801 8.617 0.024 7.731 7.763 8.85 12.568 1.817 32.856 1.24 32.856-0.934 0-2.003-1.844-3.107-5.187-3.107-2.278 0-17.717-4.514-22.313-6.524-7.858-3.437-12.801-5.476-13.271-5.476-0.284 0-0.215 3.236 0.152 7.191m-46.273 3.446c0.444 15.89 13.168 27.164 15.416 13.659 0.962-5.781 1.326-6.471 3.223-6.112 1.232 0.234 1.846 1.46 2.066 4.123 0.653 7.894 21.447 8.57 22.006 0.716 0.803-11.296 1.541-10.818-21.819-14.13-19.088-2.707-21.012-2.547-20.892 1.744m155.03 3.062c-0.748 0.297-7.048 1.337-14 2.31-10.836 1.517-11.784 1.784-6.64 1.873 7.333 0.126 17.14-1.391 21.648-3.348 3.063-1.33 2.145-2.09-1.008-0.835m0.86 34.801c0 0.275 0.225 0.5 0.5 0.5s0.5-0.225 0.5-0.5-0.225-0.5-0.5-0.5-0.5 0.225-0.5 0.5m4 35c0 0.275 0.225 0.5 0.5 0.5s0.5-0.225 0.5-0.5-0.225-0.5-0.5-0.5-0.5 0.225-0.5 0.5m-63 82c0 0.275 0.225 0.5 0.5 0.5s0.5-0.225 0.5-0.5-0.225-0.5-0.5-0.5-0.5 0.225-0.5 0.5m23 8c0 0.275 0.225 0.5 0.5 0.5s0.5-0.225 0.5-0.5-0.225-0.5-0.5-0.5-0.5 0.225-0.5 0.5" fill="#9999b5" fill-rule="evenodd"/>
<path d="m145 14.476c-7.425 0.752-16.875 2.053-21 2.891-4.125 0.837-9.75 1.796-12.5 2.131-49.558 6.029-65.712 22.524-68.553 70.002-1.171 19.569-1.15 39.257 0.043 39.994 1.122 0.693-2.839 9.174-6.664 14.271-9.817 13.08-10.688 31.227-2.424 50.506 4.646 10.839 18.011 19.322 18.134 11.51 0.022-1.361 0.823-0.092 1.989 3.149 6.038 16.79 18.864 22.585 18.968 8.57 0.04-5.488 0.083-5.459 4.428 3 6.418 12.492 6.429 12.5 16.642 12.5 4.851 0 9.098-0.451 9.439-1.003 0.414-0.67 1.241-0.67 2.493 0 2.564 1.373 17.599 1.125 22.505-0.37 3.977-1.212 4-1.247 3.968-6.216-0.031-4.996-0.031-4.996 5-4.277 2.768 0.396 11.669 0.753 19.782 0.793 14.75 0.073 14.75 0.073 14.75 3.951 0 5.826-1.541 6.558-13.868 6.592-18.08 0.051-20.054 6.36-20.85 66.649l-0.563 42.62-8.855 0.505c-9.354 0.533-11.864 1.628-11.864 5.178 0 4.467 0.783 4.578 32.45 4.582 37.931 4e-3 64.245 1.135 49.55 2.129-5.225 0.354-14.957 0.694-21.628 0.755-13.034 0.12-14.842 0.793-14.199 5.282 0.468 3.267 4.303 4.788 12.327 4.889 13.349 0.17 16.699 1.136 12 3.461-6.503 3.219-5.959 10.48 0.785 10.48 5.852 0 13.715 3.143 13.715 5.483 0 5.418 6.07 6.103 10.804 1.219 5.425-5.597 4.187-9.871-3.263-11.263-5.509-1.03-2.51-2.015 9.819-3.226 11.788-1.157 16.338-5.115 11.473-9.98-0.89-0.89-0.83-1.278 0.25-1.634 2.46-0.81 15.999-3.658 24.176-5.086 12.903-2.252 16.124-10.513 4.1-10.513-2.333 0-4.519-0.45-4.859-1s-1.491-1-2.559-1c-1.838 0-1.942-0.833-1.961-15.75-0.013-10.01-0.753-21.216-2.029-30.75-1.104-8.25-2.461-20.175-3.016-26.5-3.107-35.434-5.37-39.363-22.11-38.389-12.511 0.727-15.825-0.207-15.825-4.462 0-2.901 0-2.901 14.75-3.366 12.843-0.405 15.72-0.817 22.25-3.187 4.125-1.497 9.525-3.326 12-4.065 2.475-0.738 5.253-1.645 6.173-2.014 1.233-0.495 2.669 0.662 5.463 4.406 5.162 6.913 8.352 6.34 14.247-2.56 3.002-4.532 4.69-4.493 3.542 0.082-0.82 3.266 1.064 4.039 6.362 2.612 3.871-1.042 6.601-3.568 13.213-12.224 2.5-3.273 2.5-3.273 3 0.687 0.724 5.734 2.922 5.58 9.974-0.697 9.928-8.838 12.597-20.411 6.7-29.056-2.244-3.289-4.373-8.272-5.67-13.267-1.142-4.4-2.584-8.9-3.205-10s-1.228-4.7-1.349-8-1.164-9.375-2.318-13.5c-2.191-7.833-2.79-16.475-1.21-17.452 1.176-0.727 4.716-11.669 5.677-17.548 0.542-3.319 0.902-3.975 1.371-2.5 5.798 18.232 12.821 12.907 8.721-6.612-1.953-9.296-22.136-37.888-26.745-37.888-0.456 0-3.217-2.302-6.137-5.115-7.401-7.131-15.184-10.536-41.809-18.29-4.959-1.444-40.57-7.454-57.024-9.623-3.589-0.473-8.539-1.33-11-1.904-7.595-1.772-23.839-2.025-37.976-0.592m2 5.051c-7.425 0.769-15.975 1.875-19 2.459-3.025 0.583-9.775 1.687-15 2.452-17.664 2.586-21.482 3.39-29 6.102-10.455 3.772-14.606 6.025-17.769 9.647-1.502 1.72-4.15 4.704-5.885 6.63-6.601 7.332-11.143 23.7-12.399 44.683-1.034 17.271-1.043 32.248-0.018 28 0.398-1.65 1.312-4.096 2.032-5.436s1.585-5.84 1.924-10c0.544-6.692 0.846-7.564 2.615-7.564 3 0 3.309 10.249 0.545 18.112-1.125 3.2-2.045 6.334-2.045 6.965 0 1.621-7.245 16.61-12.047 24.923-8.589 14.87-9.541 20.788-5.648 35.112 2.82 10.375 3.904 12.778 7.504 16.638 3.455 3.704 4.191 3.474 4.191-1.307 0-16.291 6.146-18.623 8.663-3.287 2.416 14.722 12.204 32.074 12.323 21.844 0.147-12.693 5.758-16.79 9.587-7 2.346 6 2.346 6 2.207-7.228-0.139-13.227-0.139-13.227-3.462-16.448-11.909-11.543-9.417-40.824 3.474-40.824 3.087 0 3.213-0.161 3.34-4.25 0.675-21.812 1.347-27.25 3.368-27.25 2.634 0 3.068 8.418 1.443 28-2.544 30.664-3.897 27.142 10.702 27.85 7.07 0.343 15.443 0.91 18.605 1.261l5.75 0.637v-21.905c0-21.905 0-21.905-3.084-23.069-7.531-2.842-3.343-4.164 14.863-4.692 23.343-0.676 28.583-10.726 20.491-39.297-2.424-8.563-2.328-14.785 0.23-14.785 1.564 0 2.134 0.871 2.614 4 0.337 2.2 1.329 6.603 2.204 9.784 0.875 3.182 1.857 8.582 2.184 12 2.227 23.34 3.684 24.876 21.498 22.662 4.675-0.581 10.389-1.281 12.697-1.555 4.143-0.491 4.205-0.557 4.863-5.194 0.366-2.583 1.515-8.909 2.553-14.057s1.887-10.915 1.887-12.816c0-6.856 4.066-9.907 6.096-4.574 0.576 1.513 2.387 7.676 4.025 13.697 1.637 6.021 4.623 14.079 6.634 17.907l3.657 6.959 1.627-7.406c0.895-4.074 2.579-10.557 3.744-14.407 1.164-3.85 2.252-8.125 2.417-9.5 1.044-8.698 5.547-1.249 5.7 9.432 0.095 6.609 3.609 22.588 4.96 22.55 2.623-0.074 13.869-23.927 14.996-31.808 1.068-7.468 4.794-6.79 7.289 1.326 1.015 3.3 2.286 7.35 2.825 9 0.538 1.651 1.517 6.463 2.175 10.694 2.343 15.07 7.654 5.361 6.357-11.62-1.455-19.038-1.281-23.074 0.998-23.074 1.744 0 2.088 0.895 2.686 7 0.377 3.85 1.151 10.375 1.719 14.5s1.054 11.55 1.079 16.5c0.026 4.95 0.911 13.755 1.968 19.567 4.767 26.219 3.763 47.32-2.935 61.688-2.917 6.255-2.917 6.255 0.892 12 2.095 3.16 4.12 6.735 4.501 7.944 1.227 3.897 12.697-7.082 17.106-16.373 2.663-5.612 4.921-4.13 5.283 3.465 0.319 6.71 7.131 2.926 8.621-4.79 0.319-1.65 0.822-4.267 1.119-5.815 0.409-2.138-0.195-3.737-2.516-6.657-1.856-2.336-4.045-7.216-5.578-12.437-1.388-4.725-2.928-9.328-3.421-10.227s-1.41-5.399-2.037-10c-0.626-4.601-1.773-11.065-2.548-14.365-2.226-9.475-1.871-17.714 1.008-23.395 3.967-7.829 5.002-16.325 3.106-25.503-1.763-8.536-1.443-10.005 2.036-9.34 3.167 0.605 0.805-3.633-5.089-9.13-2.2-2.052-5.178-5.1-6.618-6.774-1.439-1.674-4.702-4.541-7.25-6.37-2.547-1.83-4.646-3.813-4.663-4.408-0.072-2.467-12.388-8.189-26.969-12.528-4.125-1.227-8.85-2.69-10.5-3.25s-15.375-2.977-30.5-5.372-31.325-5.044-36-5.887c-12.789-2.304-22.088-2.559-37-1.016m168.65 60.593c1.486 4.313 4.156 9.88 4.738 9.88 1.128 0-1.444-8.152-3.41-10.813-2.993-4.047-3.034-4.018-1.328 0.933m-107.13 19.467c-0.961 5.452-2.049 11.711-2.417 13.908-0.656 3.912-0.774 4.01-5.64 4.671-29.083 3.95-37.665 3.801-38.553-0.666-0.566-2.848-2.916-0.1-2.916 3.41 0 2.827-4.014 3.893-17.25 4.581l-13.75 0.714v22.231c0 12.227 0.279 22.51 0.621 22.851 0.341 0.342 0.724 5.164 0.85 10.717s0.64 10.507 1.141 11.008c6.063 6.063 56.045 19.988 71.745 19.988 10.814 0 40.962-4.382 52.643-7.651 27.469-7.688 35.163-31.264 26.234-80.39-1.734-9.542-1.734-9.542-5.194-7.208-5.988 4.038-7.428 2.986-8.245-6.024-1.125-12.412-3.72-20.635-5.373-17.03-3.045 6.64-5.422 12.234-5.422 12.76 0 0.312-2.106 3.734-4.68 7.605-8.094 12.172-11.221 10.451-16.459-9.062-1.208-4.5-1.208-4.5-2.944 4.428-1.698 8.725-3.934 12.476-7.484 12.55-1.686 0.035-10.594-17.723-12.987-25.891l-2.173-7.414-1.747 9.914m-65.184 33.964c-1.224 3.19 1.266 3.484 27.225 3.216 25.177-0.259 25.933-0.325 25.933-2.267 0-2.78-52.098-3.71-53.158-0.949m99.004 1.989c-1.163 3.031 1.206 3.519 15.733 3.239 13.661-0.264 14.421-0.384 14.421-2.279 0-2.771-29.103-3.698-30.154-0.96m-70.281 7.338c-3.914 7.315 0.339 22.351 5.186 18.329 1.708-1.417 3.999-11.823 3.578-16.25-0.409-4.297-6.769-5.806-8.764-2.079m81.901 4.372c-4.429 7.181-0.843 21.027 4.153 16.031 1.102-1.102 3.881-11.577 3.881-14.63 0-5.32-5.071-6.204-8.034-1.401m-177.93 4.435c-3.631 4.616-2.654 27.374 1.219 28.408 3.456 0.923 3.502 0.731 4.066-17.343 0.472-15.142-0.491-17.159-5.285-11.065m8.967 32.18c0 4.459 5.259 6.471 25.124 9.613 14.748 2.332 18.61 0.668 14.111-6.08-2.289-3.433-39.235-6.76-39.235-3.533m125.33 8.713c-0.419 1.09 0.03 2.213 1.236 3.096 2.718 1.987 4.932 1.229 4.932-1.688 0-3.107-5.072-4.266-6.168-1.408m64.829 8.751c-1.223 1.302-3.447 2.979-4.942 3.727-5.415 2.711-5.458 2.94-1.334 7.064 4.654 4.654 4.446 4.628 7.118 0.876 4.72-6.629 3.985-16.806-0.842-11.667m-143.78 5.862c0.801 8.617 0.024 7.731 7.763 8.85 12.568 1.817 32.856 1.24 32.856-0.934 0-2.003-1.844-3.107-5.187-3.107-2.278 0-17.717-4.514-22.313-6.524-7.858-3.437-12.801-5.476-13.271-5.476-0.284 0-0.215 3.236 0.152 7.191m-46.273 3.446c0.444 15.89 13.168 27.164 15.416 13.659 0.962-5.781 1.326-6.471 3.223-6.112 1.232 0.234 1.846 1.46 2.066 4.123 0.653 7.894 21.447 8.57 22.006 0.716 0.803-11.296 1.541-10.818-21.819-14.13-19.088-2.707-21.012-2.547-20.892 1.744m155.03 3.062c-0.748 0.297-7.048 1.337-14 2.31-10.836 1.517-11.784 1.784-6.64 1.873 7.333 0.126 17.14-1.391 21.648-3.348 3.063-1.33 2.145-2.09-1.008-0.835m-63.14 8.219c0 3.805-0.215 7.518-0.478 8.25-1.426 3.972 17.174 8.572 21.965 5.433 4.353-2.852 3.39-17.594-1.149-17.598-1.739-2e-3 -6.689-0.678-11-1.503s-8.176-1.5-8.588-1.5-0.75 3.113-0.75 6.918m-6.308 30.332c-1.243 0.92-1.756 3.033-1.941 7.998-0.234 6.285-0.408 6.748-2.532 6.75-2.748 2e-3 -3.963 2.581-2.397 5.088 0.724 1.159 0.781 2.041 0.158 2.427-1.425 0.88-1.2 4.255 0.345 5.187 0.729 0.44 1.637 1.645 2.018 2.678 0.558 1.514 1.369 1.768 4.186 1.311 3.257-0.529 3.625-0.308 5.447 3.265 7.774 15.238 27.691 15.88 26.858 0.865-0.261-4.715 0.026-6.611 1.131-7.469 2.454-1.904-0.798-12.879-3.783-12.771-1.215 0.045-2.182-0.525-2.182-1.284 0-7.714-21.157-18.595-27.308-14.045m3.316 7.5c0.035 17.812 8.962 33.235 19.242 33.245 4.672 5e-3 4.75-0.048 4.75-3.174 0-3.93-2.06-10.048-3.745-11.121-0.69-0.44-1.255-2.152-1.255-3.805 0-7.97-8.963-18.895-15.503-18.895-3.376 0-3.497 0.13-3.489 3.75m35.416 4.588c-1.519 3.959 0.078 17.162 2.076 17.162 1.313 0 2.11-0.773 2.32-2.25 0.368-2.591 0.554-2.658 3.061-1.092 4.838 3.021 6.608-3.638 2.25-8.464-6.193-6.858-8.618-8.196-9.707-5.356m-28.71 2.281c-1.314 1.314-0.733 4.271 1.036 5.274 1.656 0.938 1.652 1.064-0.086 2.349-4.078 3.014-1.835 7.258 3.836 7.258 5.308 0 6.119-2.749 3.604-12.226-0.734-2.765-6.466-4.578-8.39-2.655" fill="#3a322e" fill-rule="evenodd"/>
<ellipse cx="78.177" cy="180.37" rx="2.2722" ry="2.1494" fill="#fd5"/>
</svg>
